# xmcd CD database file
#
# Track frame offsets:
#	150
#	19495
#	59447
#	75637
#	102542
#	125897
#	159582
#	178877
#	207500
#
# Disc length: 3041 seconds
#
# Revision: 0
# Processed by: cddbd v1.5.2PL0 Copyright (c) Steve Scherf et al.
# Submitted via: CDex 1.51
#
DISCID=870bdf09
DTITLE=Benny Waters - From Paradise (small's) To Shangri-La
DYEAR=1987
DGENRE=Jazz
TTITLE0=Topsy
TTITLE1=Everything Happens To Me
TTITLE2=Hit That Jive Jack
TTITLE3=Strollin' Along The Rhine
TTITLE4=S'Wonderful
TTITLE5=No Problem
TTITLE6=Romance Without Finance
TTITLE7=Cry Me A River
TTITLE8=I Want To Be Happy
EXTD=YEAR: 1987
EXTT0=
EXTT1=
EXTT2=
EXTT3=
EXTT4=
EXTT5=
EXTT6=
EXTT7=
EXTT8=
PLAYORDER=
